<svg>
    <symbol id="favorite"  viewBox="0 0 24 24" fill="inherit" xmlns="http://www.w3.org/2000/svg">
<path fill-rule="evenodd" clip-rule="evenodd" d="M11.993 5.09691C11.0387 4.25883 9.78328 3.75 8.40796 3.75C5.42122 3.75 3 6.1497 3 9.10988C3 10.473 3.50639 11.7242 4.35199 12.67L12 20.25L19.4216 12.8944L19.641 12.6631C20.4866 11.7172 21 10.473 21 9.10988C21 6.1497 18.5788 3.75 15.592 3.75C14.2167 3.75 12.9613 4.25883 12.007 5.09692L12 5.08998L11.993 5.09691ZM12 7.09938L12.0549 7.14755L12.9079 6.30208L12.9968 6.22399C13.6868 5.61806 14.5932 5.25 15.592 5.25C17.763 5.25 19.5 6.99073 19.5 9.10988C19.5 10.0813 19.1385 10.9674 18.5363 11.6481L18.3492 11.8453L12 18.1381L5.44274 11.6391C4.85393 10.9658 4.5 10.0809 4.5 9.10988C4.5 6.99073 6.23699 5.25 8.40796 5.25C9.40675 5.25 10.3132 5.61806 11.0032 6.22398L11.0921 6.30203L11.9452 7.14752L12 7.09938Z" fill="inherit"/>
</symbol>
<symbol id="cart" viewBox="0 0 24 24" fill="transparent" xmlns="http://www.w3.org/2000/svg">
<path d="M7.5 18C8.32843 18 9 18.6716 9 19.5C9 20.3284 8.32843 21 7.5 21C6.67157 21 6 20.3284 6 19.5C6 18.6716 6.67157 18 7.5 18Z" stroke="inherit" stroke-width="1.5"/>
<path d="M16.5 18.0001C17.3284 18.0001 18 18.6716 18 19.5001C18 20.3285 17.3284 21.0001 16.5 21.0001C15.6716 21.0001 15 20.3285 15 19.5001C15 18.6716 15.6716 18.0001 16.5 18.0001Z" stroke="inherit" stroke-width="1.5"/>
<path d="M2 3L2.26121 3.09184C3.5628 3.54945 4.2136 3.77826 4.58584 4.32298C4.95808 4.86771 4.95808 5.59126 4.95808 7.03836V9.76C4.95808 12.7016 5.02132 13.6723 5.88772 14.5862C6.75412 15.5 8.14857 15.5 10.9375 15.5H12M16.2404 15.5C17.8014 15.5 18.5819 15.5 19.1336 15.0504C19.6853 14.6008 19.8429 13.8364 20.158 12.3075L20.6578 9.88275C21.0049 8.14369 21.1784 7.27417 20.7345 6.69708C20.2906 6.12 18.7738 6.12 17.0888 6.12H11.0235M4.95808 6.12H7" stroke="inherit" stroke-width="1.5" stroke-linecap="round"/>
</symbol>
<symbol id="profile" fill="inherit" viewBox="0 0 32 32" xmlns="http://www.w3.org/2000/svg">
<title/>
<g id="about">
<path d="M16,16A7,7,0,1,0,9,9,7,7,0,0,0,16,16ZM16,4a5,5,0,1,1-5,5A5,5,0,0,1,16,4Z"/>
<path d="M17,18H15A11,11,0,0,0,4,29a1,1,0,0,0,1,1H27a1,1,0,0,0,1-1A11,11,0,0,0,17,18ZM6.06,28A9,9,0,0,1,15,20h2a9,9,0,0,1,8.94,8Z"/>
</g>
</symbol>
</svg>